<?xml version="1.0" encoding="UTF-8"?>
<svg id="Layer_2" data-name="Layer 2" xmlns="http://www.w3.org/2000/svg" xmlns:xlink="http://www.w3.org/1999/xlink" viewBox="0 0 1376.98 304.98">
  <defs>
    <style>
      .cls-1 {
        fill: #c6e9ff;
      }

      .cls-1, .cls-2, .cls-3 {
        stroke-width: 0px;
      }

      .cls-2 {
        fill: #fff;
      }

      .cls-3 {
        fill: #f0f0f0;
      }
    </style>
    <symbol id="logo_2" data-name="logo 2" viewBox="0 0 4857.86 1075.94">
      <g>
        <g>
          <g>
            <path class="cls-3" d="M1194.01,1025.73c0-2.14,1.22-4.15,3.68-5.99,1.53-1.53,3.38-2.3,5.53-2.3,3.07,0,5.53,1.23,7.37,3.69,17.8,25.49,42.68,38.23,74.62,38.23,16.27,0,30.55-4.07,42.83-12.21,12.28-8.13,18.42-19.12,18.42-32.93s-5.38-24.71-16.12-31.78c-10.75-7.06-25.49-12.9-44.22-17.5-24.87-6.14-44.45-14.35-58.73-24.64-14.28-10.28-21.42-24.79-21.42-43.53s7.21-33.08,21.65-44.91c14.43-11.82,33-17.73,55.73-17.73,12.59,0,25.1,2.46,37.54,7.37,12.44,4.92,23.72,12.75,33.85,23.49,2.14,1.84,3.22,3.99,3.22,6.45,0,2.76-1.08,5.22-3.22,7.37-2.46,1.23-4.45,1.84-5.99,1.84-2.15,0-3.99-.92-5.53-2.76-15.97-17.5-36.55-26.25-61.72-26.25-16.28,0-30.02,3.99-41.22,11.98-11.21,7.99-16.81,19.04-16.81,33.16.92,13.21,6.98,23.42,18.19,30.63,11.21,7.22,27.71,13.59,49.51,19.11,15.66,3.99,28.63,8.37,38.92,13.13,10.28,4.76,18.5,11.44,24.64,20.04,6.14,8.6,9.21,19.81,9.21,33.62,0,19.34-7.45,34.62-22.34,45.83-14.9,11.21-34.31,16.81-58.26,16.81-35.01,0-63.72-13.82-86.13-41.45-2.15-3.38-3.22-6.29-3.22-8.75Z"/>
            <path class="cls-3" d="M1781.72,1016.75c-9.83,18.27-23.42,32.7-40.76,43.3-17.35,10.59-36.62,15.89-57.8,15.89s-40.46-5.3-57.8-15.89c-17.35-10.59-31.02-25.1-40.99-43.53-9.98-18.42-14.97-38.84-14.97-61.26s4.99-43.3,14.97-61.72c9.97-18.42,23.56-32.93,40.76-43.53,17.19-10.59,36.54-15.89,58.03-15.89s40.45,5.3,57.8,15.89c17.34,10.59,30.93,25.1,40.76,43.53,9.82,18.42,14.74,39,14.74,61.72s-4.92,43.22-14.74,61.49ZM1765.83,902.3c-8.14-15.66-19.42-28.02-33.85-37.08-14.44-9.05-30.71-13.59-48.82-13.59s-34.01,4.53-48.59,13.59c-14.59,9.06-26.02,21.42-34.31,37.08-8.29,15.66-12.44,33.32-12.44,52.97s4.15,36.85,12.44,52.51c8.29,15.66,19.73,28.02,34.31,37.08,14.58,9.06,30.78,13.59,48.59,13.59s34.39-4.45,48.82-13.36c14.43-8.9,25.71-21.26,33.85-37.08,8.13-15.81,12.21-33.39,12.21-52.74s-4.07-37.31-12.21-52.97Z"/>
            <path class="cls-3" d="M2035.97,1068.57c-1.84,1.84-3.99,2.76-6.45,2.76-2.76,0-4.99-.92-6.68-2.76-1.69-1.84-2.53-3.99-2.53-6.45v-322.41c0-2.45.92-4.61,2.76-6.45,1.84-1.84,3.99-2.76,6.45-2.76,2.76,0,4.99.92,6.68,2.76,1.68,1.84,2.53,3.99,2.53,6.45v322.41c0,2.46-.92,4.61-2.76,6.45Z"/>
            <path class="cls-3" d="M2456.72,844.26c1.68,1.84,2.53,4,2.53,6.45v134.03c0,29.17-8.22,51.36-24.64,66.55-16.43,15.2-38.77,22.8-67.02,22.8s-50.51-7.6-66.79-22.8c-16.28-15.2-24.41-37.38-24.41-66.55v-134.03c0-2.45.92-4.61,2.76-6.45,1.84-1.84,3.99-2.76,6.45-2.76,2.76,0,4.99.92,6.68,2.76,1.68,1.84,2.53,4,2.53,6.45v134.03c0,23.03,6.45,40.76,19.34,53.2,12.9,12.44,30.7,18.65,53.43,18.65s40.99-6.22,53.89-18.65c12.9-12.44,19.34-30.17,19.34-53.2v-134.03c0-2.45.84-4.61,2.53-6.45,1.68-1.84,3.92-2.76,6.68-2.76s4.99.92,6.68,2.76Z"/>
            <path class="cls-3" d="M2788.57,842.42c1.84,1.84,2.76,3.84,2.76,5.99,0,2.46-.85,4.53-2.53,6.22-1.69,1.69-3.76,2.53-6.22,2.53h-50.67v163.97c0,13.51,2.38,22.5,7.14,26.94,4.76,4.46,10.82,6.68,18.19,6.68,1.22,0,2.99-.3,5.3-.92,2.3-.61,4.22-.92,5.76-.92,2.14,0,3.99.85,5.53,2.53,1.53,1.69,2.3,3.61,2.3,5.76,0,2.76-1.84,5.15-5.53,7.14-3.68,2-7.99,2.99-12.9,2.99-7.68,0-14.13-.53-19.34-1.61-5.22-1.07-10.67-5.22-16.35-12.44-5.69-7.21-8.52-18.96-8.52-35.24v-164.89h-37.77c-2.15,0-4.15-.92-5.99-2.76s-2.76-3.84-2.76-5.99c0-2.45.84-4.53,2.53-6.22s3.76-2.53,6.22-2.53h37.77v-58.5c0-2.45.92-4.61,2.76-6.45,1.84-1.84,3.99-2.76,6.45-2.76,2.76,0,4.99.92,6.68,2.76,1.68,1.84,2.53,3.99,2.53,6.45v58.5h50.67c2.14,0,4.15.92,5.99,2.76Z"/>
            <path class="cls-3" d="M3001.13,798.66c-2.92-2.76-4.38-6.29-4.38-10.59v-3.69c0-4.3,1.53-7.83,4.61-10.59,3.07-2.76,7.06-4.15,11.98-4.15,4.3,0,7.9,1.38,10.82,4.15,2.92,2.76,4.38,6.3,4.38,10.59v3.69c0,4.3-1.46,7.83-4.38,10.59-2.92,2.76-6.68,4.14-11.28,4.14-4.92,0-8.83-1.38-11.75-4.14ZM3019.32,1068.57c-1.84,1.84-3.99,2.76-6.45,2.76-2.76,0-5-.92-6.68-2.76-1.69-1.84-2.53-3.99-2.53-6.45v-218.78c0-2.45.92-4.61,2.76-6.45,1.84-1.84,3.99-2.76,6.45-2.76,2.76,0,4.99.92,6.68,2.76,1.68,1.84,2.53,3.99,2.53,6.45v218.78c0,2.46-.92,4.61-2.76,6.45Z"/>
            <path class="cls-3" d="M3455.96,1016.75c-9.83,18.27-23.42,32.7-40.76,43.3-17.35,10.59-36.62,15.89-57.8,15.89s-40.46-5.3-57.8-15.89c-17.35-10.59-31.02-25.1-40.99-43.53-9.98-18.42-14.97-38.84-14.97-61.26s4.99-43.3,14.97-61.72c9.97-18.42,23.56-32.93,40.76-43.53,17.19-10.59,36.54-15.89,58.04-15.89s40.45,5.3,57.8,15.89c17.34,10.59,30.93,25.1,40.76,43.53,9.82,18.42,14.74,39,14.74,61.72s-4.92,43.22-14.74,61.49ZM3440.07,902.3c-8.14-15.66-19.42-28.02-33.85-37.08-14.44-9.05-30.71-13.59-48.82-13.59s-34.01,4.53-48.59,13.59c-14.59,9.06-26.02,21.42-34.31,37.08-8.29,15.66-12.44,33.32-12.44,52.97s4.15,36.85,12.44,52.51c8.29,15.66,19.73,28.02,34.31,37.08,14.58,9.06,30.78,13.59,48.59,13.59s34.39-4.45,48.82-13.36c14.43-8.9,25.71-21.26,33.85-37.08,8.13-15.81,12.21-33.39,12.21-52.74s-4.07-37.31-12.21-52.97Z"/>
            <path class="cls-3" d="M3858.51,858.31c13.82,16.12,20.73,37.08,20.73,62.87v140.94c0,2.46-.92,4.61-2.76,6.45-1.84,1.84-3.99,2.76-6.45,2.76-2.76,0-4.99-.92-6.68-2.76-1.69-1.84-2.53-3.99-2.53-6.45v-139.1c0-20.88-5.46-38-16.35-51.36-10.9-13.36-27.41-20.04-49.51-20.04-13.52,0-26.79,3.22-39.84,9.67-13.05,6.45-23.72,15.2-32.01,26.25-8.29,11.05-12.44,22.88-12.44,35.47v139.1c0,2.46-.92,4.61-2.76,6.45s-3.99,2.76-6.45,2.76c-2.76,0-5-.92-6.68-2.76-1.69-1.84-2.53-3.99-2.53-6.45v-211.41c0-2.45.92-4.61,2.76-6.45,1.84-1.84,3.99-2.76,6.45-2.76,2.76,0,4.99.92,6.68,2.76,1.68,1.84,2.53,4,2.53,6.45v30.86c8.9-13.82,21.42-25.17,37.54-34.08,16.12-8.9,32.31-13.36,48.59-13.36,27.33,0,47.9,8.06,61.72,24.18Z"/>
            <path class="cls-3" d="M4100.78,1025.73c0-2.14,1.22-4.15,3.68-5.99,1.53-1.53,3.38-2.3,5.53-2.3,3.07,0,5.53,1.23,7.37,3.69,17.8,25.49,42.68,38.23,74.62,38.23,16.27,0,30.55-4.07,42.83-12.21,12.28-8.13,18.42-19.12,18.42-32.93s-5.38-24.71-16.12-31.78c-10.75-7.06-25.49-12.9-44.22-17.5-24.87-6.14-44.45-14.35-58.73-24.64-14.28-10.28-21.42-24.79-21.42-43.53s7.21-33.08,21.65-44.91c14.43-11.82,33-17.73,55.73-17.73,12.59,0,25.1,2.46,37.54,7.37,12.44,4.92,23.72,12.75,33.85,23.49,2.14,1.84,3.22,3.99,3.22,6.45,0,2.76-1.08,5.22-3.22,7.37-2.46,1.23-4.46,1.84-5.99,1.84-2.15,0-3.99-.92-5.53-2.76-15.97-17.5-36.54-26.25-61.72-26.25-16.28,0-30.02,3.99-41.22,11.98-11.21,7.99-16.81,19.04-16.81,33.16.92,13.21,6.98,23.42,18.19,30.63,11.21,7.22,27.71,13.59,49.51,19.11,15.66,3.99,28.63,8.37,38.92,13.13,10.28,4.76,18.5,11.44,24.64,20.04,6.14,8.6,9.21,19.81,9.21,33.62,0,19.34-7.45,34.62-22.34,45.83-14.9,11.21-34.31,16.81-58.27,16.81-35,0-63.72-13.82-86.13-41.45-2.15-3.38-3.22-6.29-3.22-8.75Z"/>
          </g>
          <path class="cls-3" d="M1600.57,432.7c0-33.55-13.72-62.1-41.14-85.67-27.44-23.55-60.67-35.33-99.7-35.33s-72.28,11.78-99.7,35.33c-27.44,23.57-41.14,52.12-41.14,85.67v244.9h-124.87V186.82h124.87v79.38c46.46-52.91,103.89-79.38,172.3-79.38,64.52,0,119.7,24.05,165.53,72.12,45.81,48.08,68.73,106,68.73,173.76v244.9h-124.87v-244.9Z"/>
          <path class="cls-3" d="M1881.77,605.97c-51.95-47.75-77.92-105.51-77.92-173.27s25.97-125.67,77.92-173.76c51.94-48.07,114.54-72.12,187.79-72.12s135.84,24.05,187.79,72.12c51.94,48.08,77.92,106,77.92,173.76s-25.98,125.52-77.92,173.27c-51.95,47.76-114.56,71.63-187.79,71.63s-135.85-23.87-187.79-71.63ZM1969.86,517.4c27.42,23.56,60.65,35.33,99.7,35.33s72.27-11.77,99.7-35.33c27.42-23.55,41.14-51.94,41.14-85.18s-13.72-61.62-41.14-85.18c-27.44-23.55-60.67-35.33-99.7-35.33s-72.28,11.78-99.7,35.33c-27.44,23.57-41.14,51.96-41.14,85.18s13.7,61.63,41.14,85.18Z"/>
          <path class="cls-3" d="M2424.33,186.82h124.87v60.02c39.36-42.59,86.15-62.59,140.36-60.02v141.33c-14.2-8.38-29.37-11.93-45.5-10.65-16.14,1.3-31.31,5.32-45.5,12.1-14.2,6.78-25.98,19.04-35.33,36.78-9.36,17.76-14.04,38.57-14.04,62.44v248.78h-124.87V186.82Z"/>
          <path class="cls-3" d="M2777.65,0h124.87v266.2c46.46-52.91,103.89-79.38,172.3-79.38,64.52,0,119.7,24.05,165.53,72.12,45.81,48.08,68.73,106,68.73,173.76s-22.91,125.52-68.73,173.27c-45.83,47.76-101,71.63-165.53,71.63-68.41,0-125.84-26.14-172.3-78.41v78.41h-124.87V0ZM2943.66,517.4c27.42,23.56,60.65,35.33,99.7,35.33s72.27-11.77,99.7-35.33c27.42-23.55,41.14-51.94,41.14-85.18s-13.72-61.62-41.14-85.18c-27.44-23.55-60.67-35.33-99.7-35.33s-72.28,11.78-99.7,35.33c-27.44,23.57-41.14,51.96-41.14,85.18s13.7,61.63,41.14,85.18Z"/>
          <path class="cls-3" d="M3453.79,605.97c-51.95-47.75-77.92-105.51-77.92-173.27s25.97-125.67,77.92-173.76c51.94-48.07,114.54-72.12,187.79-72.12s135.84,24.05,187.79,72.12c51.94,48.08,77.92,106,77.92,173.76,0,16.14-1.62,31.94-4.84,47.43h-391.07c10.97,21.3,28.22,38.72,51.79,52.27,23.55,13.55,49.52,20.33,77.92,20.33,32.91,0,62.27-8.38,88.09-25.17h157.78c-20.66,44.53-53.09,80.68-97.28,108.42-44.21,27.75-93.41,41.62-147.62,41.62-73.57,0-136.34-23.87-188.28-71.63ZM3771.77,385.26c-10.98-21.93-28.24-39.69-51.79-53.24-23.56-13.55-49.7-20.33-78.41-20.33s-54.86,6.78-78.41,20.33c-23.56,13.55-40.5,31.31-50.82,53.24h259.42Z"/>
          <path class="cls-3" d="M3995.37,186.82h124.87v60.02c39.36-42.59,86.15-62.59,140.36-60.02v141.33c-14.2-8.38-29.37-11.93-45.5-10.65-16.14,1.3-31.31,5.32-45.5,12.1-14.2,6.78-25.98,19.04-35.33,36.78-9.36,17.76-14.04,38.57-14.04,62.44v248.78h-124.87V186.82Z"/>
          <path class="cls-3" d="M4732.98,186.82v79.38c-46.46-52.91-103.91-79.38-172.3-79.38-64.54,0-119.71,24.05-165.53,72.12-45.83,48.08-68.73,106-68.73,173.76s22.9,125.52,68.73,173.27c45.81,47.76,100.99,71.63,165.53,71.63,68.3,0,125.68-26.07,172.11-78.19v37.62c.13,2.21.2,4.44.2,6.7s-.07,4.49-.2,6.7v160.5c.07-.07.13-.14.2-.22v20.33c0,32.91-13.72,61.14-41.14,84.7-27.44,23.55-60.83,35.33-100.19,35.33h-164.56v124.87h164.56c73.57,0,136.32-23.88,188.28-71.63,51.94-47.76,77.92-105.51,77.92-173.27V186.82h-124.87ZM4691.84,517.4c-27.44,23.56-60.67,35.33-99.7,35.33s-72.28-11.77-99.7-35.33c-27.44-23.55-41.14-51.94-41.14-85.18s13.7-61.62,41.14-85.18c27.42-23.55,60.65-35.33,99.7-35.33s72.27,11.78,99.7,35.33c27.42,23.57,41.14,51.96,41.14,85.18s-13.72,61.63-41.14,85.18Z"/>
        </g>
        <path class="cls-2" d="M480.09,268.25c31.74,0,63.08,7.76,90.62,22.46,29.38,15.67,53.51,38.36,71.71,67.44l226.16,361.27c19.34,30.89,29.29,64.36,29.59,99.49.28,32.8-8.15,65.63-24.37,94.92-16.22,29.29-39.57,53.85-67.52,71.03-29.93,18.39-63.59,27.71-100.03,27.71H253.93c-36.44,0-70.09-9.32-100.03-27.71-27.95-17.17-51.3-41.73-67.52-71.03-16.22-29.29-24.65-62.12-24.37-94.92.29-35.13,10.25-68.6,29.58-99.49l226.16-361.27c18.21-29.08,42.33-51.77,71.71-67.44,27.55-14.69,58.88-22.46,90.62-22.46M480.09,206.25c-82.61,0-165.22,39.67-214.89,119L39.04,686.52c-105.7,168.85,15.68,388.05,214.89,388.05h452.32c199.21,0,320.59-219.2,214.89-388.05l-226.16-361.27c-49.66-79.33-132.28-119-214.89-119h0Z"/>
        <path class="cls-1" d="M265.2,325.69c99.33-158.66,330.45-158.66,429.78,0l27.94,44.62c13.84-32.08,21.52-67.44,21.52-104.6C744.43,119.72,626.08,1.37,480.09,1.37S215.75,119.72,215.75,265.72c0,37.16,7.68,72.52,21.52,104.6l27.94-44.62Z"/>
      </g>
    </symbol>
  </defs>
  <g id="Layer_1-2" data-name="Layer 1">
    <use width="4857.86" height="1075.94" transform="scale(.28)" xlink:href="#logo_2"/>
  </g>
</svg>