<?xml version="1.0" encoding="UTF-8"?>
<svg id="Layer_2" data-name="Layer 2" xmlns="http://www.w3.org/2000/svg" viewBox="0 0 496.97 496.97">
  <defs>
    <style>
      .cls-1 {
        fill: #c0e7ff;
      }

      .cls-1, .cls-2, .cls-3 {
        stroke-width: 0px;
      }

      .cls-2 {
        fill: #fff;
      }

      .cls-3 {
        fill: #052659;
      }
    </style>
  </defs>
  <g id="Layer_1-2" data-name="Layer 1">
    <g>
      <rect class="cls-2" width="496.97" height="496.97" rx="71.19" ry="71.19"/>
      <g>
        <path class="cls-3" d="M248.48,181.14c16.29,0,30.58,7.92,39.23,21.72l60.91,97.3c9.06,14.48,9.53,32.04,1.26,46.98-8.27,14.94-23.41,23.86-40.49,23.86h-121.82c-17.08,0-32.21-8.92-40.49-23.86-8.27-14.94-7.8-32.5,1.26-46.98l60.91-97.3c8.64-13.8,22.94-21.72,39.23-21.72M248.48,159.14c-22.25,0-44.5,10.68-57.87,32.05l-60.91,97.3c-28.47,45.48,4.22,104.51,57.87,104.51h121.82c53.65,0,86.34-59.03,57.87-104.51l-60.91-97.3c-13.38-21.37-35.62-32.05-57.87-32.05h0Z"/>
        <path class="cls-1" d="M190.61,191.31c26.75-42.73,89-42.73,115.75,0l7.52,12.02c3.73-8.64,5.8-18.16,5.8-28.17,0-39.32-31.87-71.19-71.19-71.19s-71.19,31.87-71.19,71.19c0,10.01,2.07,19.53,5.8,28.17l7.52-12.02Z"/>
      </g>
    </g>
  </g>
</svg>